<svg version="1.1" xmlns="http://www.w3.org/2000/svg" viewBox="0 0 293.447 410.4">
<g>
	<path d="M230.095,0.4c-0.533,0-1.067,0-1.6,0c-2.86,1.485-4.571,3.982-6.038,6.733c-2.463,4.616-4.217,9.519-5.532,14.543
		c-0.894,3.418-2.744,5.054-6.222,5.657c-9.82,1.702-16.978,7.303-21.974,15.805c-3.116,5.303-5.54,10.93-7.749,16.658
		c-5.998,15.552-10.581,31.586-16.173,47.275c-2.67,7.492-2.78,7.393-10.786,7.471c-9.516,0.092-8.85-1.489-8.995,9.063
		c-0.046,3.345,1.008,5.032,4.538,4.863c1.093-0.053,2.738-0.553,3.151,0.91c0.343,1.216-1.006,2.062-1.813,2.915
		c-5.011,5.304-11.285,8.397-18.225,10.273c-7.972,2.155-16.101,3.839-23.91,6.474c-19.919,6.72-38.387,16.102-52.74,31.981
		c-8.762,9.694-14.786,21.186-19.907,33.109C20.518,250.456,13.21,288.904,7.393,327.714c-2.725,18.181-4.643,36.462-6.129,54.778
		C0.521,391.639-0.44,400.794-0.305,410c46.667,0,93.333,0,140,0c0.493-1.949-0.311-3.69-0.973-5.41
		c-2.85-7.405-8.693-11.265-16.076-12.974c-2.917-0.675-3.289-1.554-1.476-3.862c3.077-3.918,5.099-8.428,6.683-13.113
		c6.86-20.295,9.509-41.476,12.819-62.492c2.526-16.041,6.297-31.564,14.608-45.721c6.144-10.465,13.844-19.532,23.505-26.905
		c3.49-2.664,3.601-2.664,4.198,1.857c0.4,3.027,0.505,6.095,0.69,9.148c1.214,19.964,1.107,39.919-0.724,59.841
		c-1.428,15.534-1.993,31.05-0.643,46.634c1.556,17.958,4.847,35.582,9.39,52.997c18.667,0,37.333,0,56,0
		c-1.359-9.263-8.84-16.999-17.817-18.753c-5.391-1.054-10.62-0.343-15.829,0.854c-2.513,0.578-3.562,0.125-3.774-2.741
		c-1.663-22.458-0.527-44.779,4.038-66.8c5.275-25.443,10.243-50.936,12.879-76.784c1.095-10.737,4.344-20.379,9.555-29.674
		c5.016-8.947,9.381-18.257,14.306-27.258c3.902-7.133,4.645-14.343,1.743-21.915c-1.143-2.984-2.227-6.008-3.621-8.876
		c-4.017-8.268-8.28-16.418-12.242-24.712c-2.049-4.289-1.626-4.747,2.98-4.846c6.852-0.147,6.854-0.147,6.961-6.938
		c0.015-0.933-0.023-1.866-0.005-2.799c0.058-2.906-1.075-4.513-4.264-4.277c-2.121,0.157-4.264,0.001-6.397,0.041
		c-2.907,0.055-3.744-1.216-3.032-4.032c2.435-9.628,11.677-17.521,21.578-18.731c9.406-1.149,18.601,0.185,27.777,1.82
		c2.726,0.486,4.228-0.11,5.257-2.701c1.673-4.208,3.556-8.334,5.414-12.467c0.775-1.725,0.838-3.24-0.39-4.834
		c-13.35-17.336-27.899-33.359-47.769-43.518c-2.085-1.066-3.241-2.427-3.73-4.753c-1.26-5.998-2.733-11.951-5.325-17.558
		C234.627,4.802,233.058,2.049,230.095,0.4z"/>
</g>
</svg>
