<svg version="1.1" xmlns="http://www.w3.org/2000/svg" viewBox="0 0 457.489 191.251">
<g>
	<path d="M419.24,21.252c4.077-6.327,9.187-11.443,15.388-15.574c3.365-2.242,5.508-2.236,7.298,1.859
		c2.857,6.534,5.109,13.063,3.062,20.282c-0.74,2.611-0.202,4.851,1.422,7.026c1.892,2.533,3.574,5.223,5.324,7.861
		c4.281,6.452,6.023,13.249,3.126,20.828c-1.266,3.313-1.399,6.751-0.686,10.316c0.652,3.262,0.529,6.633-0.001,9.953
		c-0.868,5.434-3.678,9.236-9.154,10.676c-4.311,1.134-8.055,3.104-10.865,6.666c-0.73,0.925-1.659,1.64-2.896,1.807
		c-3.995,0.54-14.154-8.473-14.142-12.553c0.002-0.666,0.04-1.332,0.052-1.999c0.224-12.05-0.498-13.217-11.553-18.045
		c-2.326-1.016-4.54-2.163-6.133-4.166c-2.194-2.759-4.861-2.506-7.652-1.335c-2.826,1.186-4.693,3.026-4.317,6.478
		c0.883,8.118,1.223,16.267,1.184,24.435c-0.005,0.95,0.259,2.065,0.791,2.831c10.488,15.111,14.438,32.883,19.668,49.993
		c3.991,13.056,11.505,20.154,25.012,21.108c2.149,0.152,4.278,0.653,6.405,1.049c6.045,1.124,9.665,4.933,11.446,10.617
		c2.216,7.075,1.112,8.581-6.254,8.63c-7.331,0.049-14.664-0.038-21.994,0.059c-2.965,0.039-5.488-0.539-7.712-2.732
		c-3.262-3.216-7.537-4.86-11.641-6.679c-4.504-1.997-8.689-4.508-11.37-8.675c-3.752-5.831-8.855-10.356-13.633-15.217
		c-9.575-9.741-19.487-19.147-28.543-29.402c-6.518-7.381-10.788-15.581-10.705-25.616c0.026-3.152-0.791-4.469-4.025-2.882
		c-1.033,0.507-2.214,0.984-3.334,1.002c-9.535,0.153-14.198,5.845-17.576,14.058c-2.965,7.209-7.196,13.892-10.765,20.859
		c-2.377,4.64-3.918,9.539-3.913,14.834c0.008,7.914,1.869,10.755,9.33,13.419c4.625,1.651,9.074,3.381,11.603,8.021
		c2.858,5.243,2.018,6.859-3.85,6.918c-7.664,0.077-15.33-0.037-22.993,0.062c-2.981,0.039-4.987-0.994-6.443-3.702
		c-1.889-3.515-4.156-6.827-6.253-10.231c-3.478-5.648-4.889-11.419-2.534-18.063c2.047-5.775,1.123-11.964,0.27-17.845
		c-1.271-8.758,0.112-16.581,5.844-23.429c1.869-2.233,2.112-3.462-1.336-4.11c-14.006-2.631-27.245-7.57-40.06-13.717
		c-0.15-0.072-0.302-0.141-0.458-0.201c-10.816-4.155-12.898-3.225-15.937,7.673c-2.638,9.46-5.385,18.912-7.445,28.505
		c-2.276,10.6,0.384,20.844,3.79,30.856c1.323,3.888,5.283,3.723,8.319,4.614c6.648,1.951,12.375,4.764,15.279,11.644
		c2.257,5.348,1.964,6.07-3.691,6.117c-5.832,0.048-11.684-0.288-17.49,0.1c-5.523,0.369-9.644-1.745-14.149-4.754
		c-16.294-10.884-20.92-27.132-22.229-45.221c-0.812-11.231-6.732-20-13.919-28.125c-1.396-1.578-2.665-2.229-4.694-0.941
		c-7.095,4.502-15.086,6.986-22.87,9.935c-16.371,6.202-30.573,15.457-41.314,29.538c-3.907,5.121-6.6,10.8-7.554,17.205
		c-0.901,6.048,0.796,8.6,6.64,10.323c6.468,1.906,9.032,5.039,9.765,11.568c0.31,2.763-0.69,4.186-3.469,4.187
		c-9.164,0.003-18.327-0.026-27.491-0.057c-2.027-0.007-3.331-1.205-4.539-2.694c-4.376-5.394-6.429-11.643-6.607-18.477
		c-0.304-11.698,1.07-23.271,3.132-34.762c1.273-7.092,4.616-12.91,11.359-16.089c20.017-9.44,30.478-27.13,39.915-45.775
		c1.903-3.76,0.218-4.329-3.043-4.038c-9.794,0.876-18.185,5.221-26.025,10.728C89.296,75.89,80.196,84.22,71.182,92.642
		c-9.871,9.222-21.08,15.629-34.916,16.601C12.895,110.884,1.149,97.383,2.314,74.93c0.397-7.65,2.972-14.728,8.221-20.499
		c4.049-4.451,8.971-6.884,15.197-5.081c5.173,1.497,6.506,4.102,4.37,8.945c-0.867,1.966-2.21,3.716-3.245,5.614
		c-1.192,2.186-2.544,4.334-3.371,6.66c-3.563,10.022,1.241,17.165,11.842,18.066C46.575,89.59,55.716,84.9,64.199,78.25
		c10.295-8.07,19.273-17.575,27.276-27.754c12.627-16.058,28.946-24.631,48.808-27.213c7.692-1,14.624-4.44,21.986-6.506
		c14.05-3.943,28.271-6.298,42.878-5.941c6.884,0.168,13.249-0.928,19.822-3.607c16.51-6.729,33.778-6.703,51.099-3.218
		c13.549,2.726,26.941,6.122,40.383,9.303c7.606,1.8,15.939,1.155,23.704-0.535c14.995-3.264,30.005-6.308,45.382-6.591
		c10.06-0.185,19.908,1.456,29.175,5.709C421.183,14.867,421.189,14.854,419.24,21.252z"/>
</g>
</svg>
