<svg version="1.1" xmlns="http://www.w3.org/2000/svg" xmlns:xlink="http://www.w3.org/1999/xlink" viewBox="0 0 55.479 59.955">
<path fill="#ffffff" d="M52.348,12.17h-6.96c0.463-0.668,0.827-1.408,1.066-2.209c0.59-1.984,0.373-4.079-0.613-5.898
	c-0.985-1.82-2.618-3.148-4.603-3.737c-1.982-0.59-4.078-0.373-5.897,0.612c-3.608,1.954-6.168,6.11-7.601,9.01
	c-1.433-2.9-3.993-7.056-7.601-9.01c-3.758-2.032-8.468-0.629-10.501,3.125c-1.437,2.654-1.152,5.781,0.459,8.107H3.133
	C1.405,12.17,0,13.575,0,15.302v9.382c0,1.727,1.405,3.131,3.133,3.131h0.83v26.109c0,3.326,2.705,6.031,6.031,6.031h35.491
	c3.325,0,6.029-2.705,6.029-6.031V27.815h0.834c1.727,0,3.131-1.405,3.131-3.131v-9.382C55.479,13.575,54.074,12.17,52.348,12.17z
	 M36.483,3.048c1.256-0.68,2.701-0.83,4.07-0.422c1.369,0.407,2.497,1.323,3.176,2.58c0.681,1.256,0.832,2.702,0.424,4.071
	c-0.359,1.204-1.128,2.202-2.159,2.893h-12.64C30.484,9.645,32.959,4.957,36.483,3.048z M11.749,5.205
	c1.402-2.591,4.653-3.56,7.248-2.157c3.524,1.909,5.999,6.596,7.129,9.122H13.487C11.227,10.652,10.428,7.647,11.749,5.205z
	 M26.54,27.815v13.67H6.363v-13.67H26.54z M6.363,53.924V43.886H26.54v13.669H9.994C7.992,57.555,6.363,55.926,6.363,53.924z
	 M45.485,57.555H28.94V43.886h20.174v10.039C49.114,55.926,47.486,57.555,45.485,57.555z M49.114,41.486H28.94v-13.67h20.174V41.486
	z M53.079,24.684c0,0.403-0.328,0.731-0.731,0.731h-2.03c-0.001,0-0.002-0.001-0.003-0.001s-0.002,0.001-0.003,0.001H27.743
	c-0.001,0-0.002-0.001-0.003-0.001s-0.002,0.001-0.003,0.001H5.166c-0.001,0-0.002-0.001-0.003-0.001s-0.002,0.001-0.003,0.001
	H3.133c-0.404,0-0.733-0.328-0.733-0.731v-9.382c0-0.397,0.335-0.732,0.733-0.732h49.215c0.396,0,0.731,0.335,0.731,0.732V24.684z"
	/>
</svg>
