<svg version="1.1" id="Layer_2" xmlns="http://www.w3.org/2000/svg" viewBox="0 0 172.264 57.07">
<path fill="#FDC305" d="M59.624,21.739C54.196,8.746,39.263,2.613,26.27,8.041S7.144,28.403,12.573,41.396
	c3.571,8.547,11.254,14.125,19.793,15.397c-0.577-2.081-1.157-4.381-1.684-6.826c1.493,0.988,3.075,1.797,4.749,2.544
	c-0.007,0.003-0.013,0.007-0.02,0.01c0,0,0.118,2.147,0.278,4.546c1.766,0.029,3.55-0.126,5.324-0.476
	c-0.042-0.157-0.043-0.403,0.012-0.759c0.285-1.854,1.088-5.213,1.243-7.375c1.124-1.059,2.129-2.315,2.888-3.697
	c-0.001,0.012-0.003,0.024-0.004,0.036c-0.017,0.143-0.035,0.287-0.054,0.431c-0.552,4.246-1.697,8.776-2.393,10.028
	c-0.242,0.436-0.544,0.855-0.826,1.148c1.362-0.319,2.717-0.754,4.051-1.311C58.92,49.665,65.052,34.732,59.624,21.739z
	 M58.153,25.508c-0.432,0.432-1.343,0.72-1.487-0.576c-0.144-1.295-0.192-2.207-0.192-2.207s-1.919-3.407-2.639-3.455
	c-0.72-0.048-5.806,3.455-7.149,4.942c-1.16,1.284-1.391,1.2-1.391,3.455c0,1.706,0.219,8.131,0.098,13.051v0v0
	c0,0-2.161,0.576-8.111,2.159c-5.95,1.583-7.773,1.775-7.773,1.775l-1.008-5.806c0,0-0.001,0-0.002,0
	c-0.005-0.001-0.019-0.003-0.04-0.007c0,0-0.002,0-0.002,0c-0.01-0.002-0.021-0.003-0.035-0.005
	c-0.014-0.002-0.031-0.004-0.049-0.006l0,0L25.814,25.7c0,0-3.79-1.439-5.182-1.823c-1.391-0.384-2.255-0.672-4.03,0.624
	c-1.775,1.295-1.727,3.838-1.727,3.838s0.432,0.96,0.48,1.439c0.048,0.48-1.2,0.432-2.015,0.432s-0.912-1.439-0.288-3.119
	c0.624-1.679,1.919-3.695,1.919-3.695s1.2-2.255,2.063-2.879c0,0,0.144-0.336,1.248-0.24c1.104,0.096,7.245,0.432,7.245,0.432
	l0.053-2.265c6.664-0.908,13.431-1.368,20.157-1.33c-0.01,0.605-0.029,1.212-0.058,1.82c0,0,4.366-2.015,8.109-1.967
	c0,0,0.432-0.048,0.768,0.384c0.336,0.432,2.399,2.975,2.639,3.359c0.24,0.384,1.2,1.727,1.823,3.023
	C59.016,23.733,58.584,25.076,58.153,25.508z"/>
<path fill="#F06351" d="M56.21,19.427c0.472,0.596,0.883,1.124,0.983,1.283c0.24,0.384,1.2,1.727,1.823,3.023
	c0,0-0.432,1.343-0.864,1.775c-0.432,0.432-1.343,0.72-1.487-0.576c-0.144-1.295-0.192-2.207-0.192-2.207s-1.919-3.407-2.639-3.455
	c-0.72-0.048-5.806,3.455-7.149,4.942c-1.16,1.284-1.391,1.2-1.391,3.455c0,1.496,0.169,6.621,0.128,11.177
	c1.801,0.208,4.447,0.707,5.245,1.873c0,0-0.288-7.149,7.773-3.407c0,0,0.288-9.74,11.419-7.245
	C69.86,30.066,64.216,23.138,56.21,19.427z"/>
<path fill="#F06351" d="M45.735,17.115c0.145-8.477-1.401-16.461-1.401-16.461s-0.144-1.295-0.864-0.24
	c-0.72,1.056-1.2,3.934-1.2,3.934c-7.437-0.432-12.763,0.336-12.763,0.336c-0.816-2.735-2.207-3.934-2.879-3.647
	c-0.672,0.288-0.72,3.311-0.72,3.311l-0.331,14.097C32.242,17.537,39.01,17.077,45.735,17.115z"/>
<path fill="#E55645" d="M45.154,44.76c0.126-1.06,0.199-2.475,0.238-4.042c0,0-2.161,0.576-8.111,2.159
	c-5.95,1.583-7.773,1.775-7.773,1.775l1.104,4.99c0.023,0.109,0.046,0.216,0.07,0.324c1.493,0.988,3.075,1.797,4.749,2.544
	c4.354-2.155,6.841-4.116,6.841-4.116c-0.001,0.02-0.003,0.041-0.005,0.062C43.39,47.397,44.395,46.141,45.154,44.76z"/>
<path d="M31.859,13.993c-0.046-0.091,1.022,0.68,1.406,0.92s0.61,0.423,0.61,0.591s-0.264,0.336-0.624,0.336s-0.912-0.12-0.96-0.264
	c0,0,0.6-0.024,0.936-0.024h0.288C33.515,15.552,32.123,14.52,31.859,13.993z"/>
<path d="M39.329,14.106c0,0-1.047,1.274-1.086,1.332s-0.166,0.341,0.185,0.292s1.111-0.224,1.218-0.283s0.069-0.196-0.117-0.175
	c-0.204,0.022-0.682,0.049-0.984,0.107l0.841-1.26C39.386,14.119,39.413,14.001,39.329,14.106z"/>
<path d="M36.198,20.194c0,0,0.81-0.351,1.089-1.008s0.036-0.912-0.441-0.978c-0.477-0.066-1.34-0.03-1.736,0.339
	c-0.396,0.369-0.342,0.729-0.054,0.954C35.344,19.726,35.902,20.104,36.198,20.194z"/>
<path fill="#F06351" d="M35.794,21.445c0,0-0.179,0.372-0.458,0.594c-0.243,0.194-0.567,0.364-1.017,0.387
	c-0.638,0.033-1.055-0.169-1.451-0.445c-0.203-0.141-0.395-0.254-0.532-0.442c-0.157-0.182-0.356-0.253-0.356-0.253
	s0.747,4.097,2.565,4.745c1.817,0.648,2.143-0.749,2.2-1.133c0.048-0.326,0-2.081-0.82-3.222
	C35.909,21.373,35.893,21.576,35.794,21.445z"/>
<g>
	<path d="M34.153,22.577c-0.005,0-0.011,0-0.016,0c-1.292-0.011-2.29-1.36-2.332-1.418c-0.047-0.064-0.033-0.154,0.032-0.201
		c0.064-0.047,0.154-0.033,0.201,0.031c0.009,0.013,0.956,1.29,2.103,1.299c0.004,0,0.008,0,0.012,0
		c0.584,0,1.131-0.333,1.627-0.989l0.142-0.188l0.102,0.213c0.004,0.007,0.373,0.755,0.988,0.794
		c0.496,0.031,1.052-0.411,1.615-1.278c0.043-0.067,0.132-0.086,0.199-0.042c0.067,0.043,0.086,0.132,0.042,0.199
		c-0.632,0.973-1.264,1.447-1.876,1.408c-0.563-0.036-0.941-0.495-1.117-0.764C35.357,22.263,34.778,22.577,34.153,22.577z"/>
</g>
<path fill="#111111" d="M41.054,29.215l-3.12,1.303l1.145-5.611l-7.469,9.72l3.12-1.303l-1.145,5.611L41.054,29.215z M33.698,33.022
	l4.113-5.385l-0.803,4.002l1.958-0.818l-4.113,5.385l0.803-4.002L33.698,33.022z"/>
<path fill="#F06351" d="M45.678,18.916c0,0-2.543,2.244-5.062,5.189c-2.519,2.945-5.29,4.874-5.29,4.874
	c-0.216-0.526-1.619-1.508-1.619-1.508s-3.131-2.139-5.182-3.822c-1.179-0.967-2.345-2.166-3.125-3.01
	c-0.292-0.016-1.065-0.057-2.005-0.109c4.69,6.967,11.967,8.799,11.967,8.799c0.864-0.14,3.275-1.858,5.074-3.261
	s4.75-4.523,5.938-5.89c0.601-0.692,0.943-1.419,1.136-1.969C46.4,18.591,45.678,18.916,45.678,18.916z"/>
<path fill="#F06351" d="M25.814,25.7c0,0-3.79-1.439-5.182-1.823c-1.391-0.384-2.255-0.672-4.03,0.624
	c-1.775,1.295-1.727,3.838-1.727,3.838s0.432,0.96,0.48,1.439c0.048,0.48-1.2,0.432-2.015,0.432s-0.912-1.439-0.288-3.119
	c0.624-1.679,1.919-3.695,1.919-3.695C9.548,26.228,0,32.753,0,32.753s2.927-0.288,8.157,0.24c5.23,0.528,4.942,4.654,4.942,4.654
	s3.503-0.96,5.614-1.104c2.111-0.144,2.255,2.111,2.255,2.111l0.528,3.838c0,0,0.48-0.624,2.639-2.351
	c1.854-1.483,3.869-1.356,4.366-1.295l0,0L25.814,25.7z"/>
<g>
	<path fill="#111111" d="M89.558,37.121c-0.662-0.853-0.994-2.082-0.994-3.69v-5.337c0-1.644,0.329-2.886,0.985-3.727
		c0.657-0.84,1.782-1.261,3.377-1.261c1.521,0,2.597,0.371,3.23,1.113c0.632,0.742,0.948,1.807,0.948,3.194v1.251H94.16v-1.38
		c0-0.442-0.022-0.797-0.065-1.068c-0.043-0.27-0.153-0.493-0.331-0.672c-0.178-0.178-0.451-0.267-0.819-0.267
		c-0.552,0-0.908,0.178-1.068,0.534c-0.16,0.356-0.239,0.877-0.239,1.564v6.772c0,0.7,0.092,1.221,0.276,1.564
		c0.184,0.344,0.527,0.515,1.031,0.515c0.515,0,0.846-0.175,0.994-0.525c0.147-0.35,0.221-0.868,0.221-1.555v-1.454h2.945v1.233
		c0,1.423-0.313,2.525-0.938,3.304C95.54,38.011,94.46,38.4,92.927,38.4C91.344,38.4,90.221,37.974,89.558,37.121z"/>
	<path fill="#111111" d="M101.116,23.29h3.368l2.871,14.907h-2.798l-0.552-3.276h-2.355l-0.571,3.276h-2.853L101.116,23.29z
		 M103.711,33.045l-0.902-6l-0.883,6H103.711z"/>
	<path fill="#111111" d="M109.508,25.536h-2.301V23.29h7.619v2.245h-2.264v12.662h-3.055V25.536z"/>
	<path fill="#444444" d="M120.808,23.29h5.778v1.546h-3.7v4.932h3v1.472h-3v5.466h3.737v1.491h-5.815V23.29z"/>
	<path fill="#444444" d="M128.298,23.29h1.417l4.232,9.901V23.29h1.73v14.907h-1.326l-4.288-10.177v10.177h-1.766V23.29z"/>
	<path fill="#444444" d="M138.015,23.29h5.778v1.546h-3.7v4.932h3v1.472h-3v5.466h3.737v1.491h-5.815V23.29z"/>
	<path fill="#444444" d="M145.505,23.29h3c1.509,0,2.616,0.31,3.322,0.929c0.706,0.62,1.058,1.629,1.058,3.028
		c0,1.914-0.613,3.074-1.841,3.478l2.117,7.472h-2.006l-1.951-6.994h-1.62v6.994h-2.079V23.29z M148.376,29.713
		c0.896,0,1.537-0.178,1.923-0.534c0.386-0.356,0.58-1,0.58-1.932c0-0.613-0.068-1.095-0.203-1.445
		c-0.135-0.35-0.375-0.608-0.717-0.773c-0.344-0.165-0.829-0.248-1.454-0.248h-0.921v4.932H148.376z"/>
	<path fill="#444444" d="M155.682,37.102c-0.601-0.853-0.902-2.119-0.902-3.8v-4.987c0-1.153,0.12-2.101,0.359-2.844
		c0.24-0.742,0.65-1.313,1.234-1.711c0.582-0.398,1.383-0.598,2.402-0.598c1.374,0,2.365,0.349,2.972,1.049
		c0.608,0.7,0.911,1.798,0.911,3.294v0.552h-1.951v-0.46c0-0.711-0.043-1.261-0.128-1.647c-0.086-0.386-0.267-0.677-0.543-0.874
		c-0.277-0.196-0.685-0.295-1.224-0.295c-0.576,0-1.006,0.132-1.288,0.396c-0.282,0.263-0.463,0.616-0.543,1.058
		c-0.081,0.442-0.12,1.031-0.12,1.767v5.521c0,1.141,0.138,1.96,0.414,2.457c0.277,0.497,0.807,0.745,1.592,0.745
		c0.772,0,1.304-0.27,1.592-0.81c0.288-0.54,0.432-1.405,0.432-2.595V32.29h-1.895v-1.472h3.772v7.38h-1.306l-0.203-1.711
		c-0.466,1.264-1.35,1.895-2.651,1.895C157.259,38.381,156.284,37.955,155.682,37.102z"/>
	<path fill="#444444" d="M167.074,32.934l-3.22-9.643h1.932l2.282,7.196l2.246-7.196h1.951l-3.203,9.643v5.264h-1.988V32.934z"/>
</g>
</svg>
