<svg version="1.1" xmlns="http://www.w3.org/2000/svg" xmlns:xlink="http://www.w3.org/1999/xlink" viewBox="0 0 201.991 59.48">
<path fill="#FDC305" d="M59.884,23.995c-5.452-13.05-20.45-19.209-33.5-13.757s-19.209,20.45-13.757,33.5
	c3.586,8.584,11.303,14.186,19.88,15.464c-0.579-2.09-1.162-4.4-1.692-6.855c1.499,0.992,3.089,1.805,4.769,2.555
	c-0.007,0.003-0.013,0.007-0.02,0.01c0,0,0.118,2.156,0.279,4.565c1.773,0.029,3.565-0.126,5.347-0.478
	c-0.042-0.158-0.043-0.405,0.012-0.762c0.286-1.862,1.093-5.236,1.248-7.407c1.129-1.064,2.138-2.325,2.9-3.713
	c-0.001,0.012-0.003,0.024-0.004,0.036c-0.017,0.144-0.036,0.288-0.054,0.433c-0.554,4.265-1.704,8.814-2.403,10.072
	c-0.243,0.437-0.546,0.858-0.83,1.153c1.368-0.32,2.729-0.757,4.068-1.317C59.177,52.043,65.336,37.044,59.884,23.995z
	 M58.406,27.781c-0.434,0.434-1.349,0.723-1.494-0.578s-0.193-2.217-0.193-2.217s-1.928-3.421-2.65-3.47
	c-0.723-0.048-5.831,3.47-7.18,4.964c-1.165,1.289-1.397,1.205-1.397,3.47c0,1.713,0.22,8.167,0.099,13.108v0v0
	c0,0-2.171,0.578-8.146,2.168c-5.976,1.59-7.807,1.783-7.807,1.783l-1.012-5.831c0,0-0.001,0-0.002,0
	c-0.005-0.001-0.019-0.003-0.04-0.007c-0.001,0-0.002,0-0.002,0c-0.01-0.002-0.022-0.003-0.035-0.005
	c-0.014-0.002-0.031-0.004-0.049-0.006c0,0,0,0,0,0l-2.57-13.185c0,0-3.807-1.446-5.204-1.831c-1.398-0.386-2.265-0.675-4.048,0.626
	c-1.783,1.301-1.735,3.855-1.735,3.855s0.434,0.964,0.482,1.446c0.048,0.482-1.205,0.434-2.024,0.434s-0.916-1.446-0.289-3.132
	c0.626-1.687,1.928-3.711,1.928-3.711s1.205-2.265,2.072-2.891c0,0,0.145-0.337,1.253-0.241c1.108,0.096,7.277,0.434,7.277,0.434
	l0.053-2.275c6.693-0.912,13.49-1.374,20.244-1.336c-0.01,0.608-0.029,1.218-0.058,1.828c0,0,4.385-2.024,8.144-1.976
	c0,0,0.434-0.048,0.771,0.386c0.337,0.434,2.409,2.988,2.65,3.373c0.241,0.386,1.205,1.735,1.831,3.036
	C59.273,25.998,58.84,27.347,58.406,27.781z"/>
<path fill="#F06351" d="M56.455,21.673c0.474,0.598,0.887,1.129,0.987,1.288c0.241,0.386,1.205,1.735,1.831,3.036
	c0,0-0.434,1.349-0.867,1.783s-1.349,0.723-1.494-0.578s-0.193-2.217-0.193-2.217s-1.928-3.421-2.65-3.47
	c-0.723-0.048-5.831,3.47-7.18,4.964c-1.165,1.289-1.397,1.205-1.397,3.47c0,1.502,0.169,6.65,0.129,11.226
	c1.809,0.209,4.466,0.71,5.268,1.882c0,0-0.289-7.18,7.807-3.422c0,0,0.289-9.783,11.469-7.277
	C70.164,32.359,64.496,25.4,56.455,21.673z"/>
<path fill="#F06351" d="M45.935,19.351c0.146-8.514-1.407-16.533-1.407-16.533s-0.145-1.301-0.867-0.241
	c-0.723,1.06-1.205,3.952-1.205,3.952c-7.469-0.434-12.818,0.337-12.818,0.337c-0.819-2.747-2.217-3.952-2.891-3.662
	c-0.675,0.289-0.723,3.325-0.723,3.325L25.69,20.687C32.383,19.775,39.18,19.313,45.935,19.351z"/>
<path fill="#E55645" d="M45.351,47.117c0.127-1.065,0.2-2.485,0.239-4.06c0,0-2.171,0.578-8.146,2.168
	c-5.976,1.59-7.807,1.783-7.807,1.783l1.108,5.012c0.023,0.109,0.047,0.217,0.07,0.326c1.499,0.992,3.089,1.805,4.769,2.555
	c4.373-2.165,6.871-4.134,6.871-4.134c-0.001,0.02-0.003,0.042-0.005,0.062C43.579,49.765,44.588,48.504,45.351,47.117z"/>
<path d="M31.998,16.215c-0.046-0.091,1.026,0.683,1.412,0.924c0.386,0.241,0.612,0.425,0.612,0.594c0,0.169-0.265,0.337-0.626,0.337
	s-0.916-0.12-0.964-0.265c0,0,0.602-0.024,0.94-0.024h0.289C33.661,17.781,32.263,16.745,31.998,16.215z"/>
<path d="M39.501,16.329c0,0-1.051,1.279-1.09,1.338c-0.039,0.059-0.166,0.342,0.186,0.294c0.352-0.049,1.116-0.225,1.223-0.284
	c0.108-0.059,0.07-0.196-0.117-0.176c-0.205,0.022-0.685,0.049-0.988,0.108l0.844-1.266C39.558,16.342,39.584,16.223,39.501,16.329z
	"/>
<path d="M36.356,22.444c0,0,0.813-0.352,1.093-1.012c0.28-0.66,0.036-0.916-0.443-0.982s-1.346-0.03-1.744,0.34
	c-0.398,0.37-0.343,0.732-0.054,0.958C35.498,21.974,36.058,22.353,36.356,22.444z"/>
<path fill="#F06351" d="M35.95,23.7c0,0-0.18,0.373-0.46,0.596c-0.244,0.194-0.569,0.365-1.022,0.388
	c-0.641,0.033-1.06-0.17-1.457-0.447c-0.204-0.142-0.397-0.256-0.535-0.444c-0.158-0.183-0.357-0.254-0.357-0.254
	s0.751,4.115,2.576,4.766c1.825,0.651,2.152-0.752,2.209-1.137c0.049-0.327,0-2.09-0.823-3.236
	C36.065,23.627,36.049,23.831,35.95,23.7z"/>
<g>
	<path d="M34.302,24.837c-0.005,0-0.011,0-0.016,0c-1.298-0.011-2.3-1.366-2.342-1.424c-0.047-0.064-0.033-0.155,0.032-0.202
		c0.064-0.047,0.155-0.033,0.202,0.032c0.009,0.013,0.96,1.296,2.112,1.305c0.004,0,0.008,0,0.012,0
		c0.587,0,1.136-0.334,1.634-0.994l0.143-0.189l0.103,0.214c0.004,0.007,0.375,0.758,0.992,0.797
		c0.498,0.031,1.057-0.413,1.622-1.283c0.043-0.067,0.133-0.086,0.2-0.042c0.067,0.044,0.086,0.133,0.042,0.2
		c-0.635,0.978-1.27,1.453-1.884,1.414c-0.565-0.036-0.946-0.497-1.122-0.767C35.511,24.521,34.93,24.837,34.302,24.837z"/>
</g>
<circle fill="#FDC305" cx="36.256" cy="34.547" r="3.75"/>
<path fill="#111111" d="M41.233,31.504L38.1,32.813l1.15-5.636l-7.501,9.762l3.133-1.309l-1.15,5.636L41.233,31.504z M33.845,35.327
	l4.131-5.408l-0.807,4.02l1.967-0.822l-4.131,5.408l0.807-4.02L33.845,35.327z"/>
<circle fill="#111111" cx="32.437" cy="32.743" r="1.123"/>
<circle fill="#111111" cx="38.958" cy="37.135" r="0.794"/>
<circle fill="#111111" cx="39.922" cy="35.399" r="0.348"/>
<path fill="#F06351" d="M45.877,21.16c0,0-2.554,2.254-5.084,5.212s-5.313,4.895-5.313,4.895c-0.217-0.528-1.626-1.514-1.626-1.514
	s-3.144-2.148-5.204-3.838c-1.184-0.972-2.355-2.175-3.138-3.024c-0.293-0.016-1.07-0.057-2.014-0.109
	c4.711,6.998,12.019,8.838,12.019,8.838c0.867-0.141,3.289-1.866,5.096-3.275c1.807-1.409,4.771-4.543,5.963-5.916
	c0.603-0.695,0.948-1.425,1.141-1.978C46.602,20.834,45.877,21.16,45.877,21.16z"/>
<polygon fill="#FDC305" points="65.218,3.498 56.763,12.942 55.544,10.945 63.693,0 "/>
<polygon fill="#FDC305" points="62.646,17.258 68.195,13.146 67.407,9.413 62.005,14.225 "/>
<polygon fill="#FDC305" points="59.924,49.366 66.053,52.552 69.063,50.206 62.369,47.461 "/>
<polygon fill="#FDC305" points="1.953,5.975 5.018,2.614 14.312,11.613 13.087,13.89 "/>
<polygon fill="#FDC305" points="7.382,16.283 2.68,13.154 0.275,17.015 5.43,19.416 "/>
<polygon fill="#FDC305" points="13.907,52.552 9.36,55.901 12.165,59.48 16.184,55.457 "/>
<path fill="#F06351" d="M25.926,27.973c0,0-3.807-1.446-5.204-1.831c-1.398-0.386-2.265-0.675-4.048,0.626
	c-1.783,1.301-1.735,3.855-1.735,3.855s0.434,0.964,0.482,1.446c0.048,0.482-1.205,0.434-2.024,0.434s-0.916-1.446-0.289-3.132
	c0.626-1.687,1.928-3.711,1.928-3.711C9.59,28.503,0,35.057,0,35.057s2.94-0.289,8.192,0.241c5.253,0.53,4.964,4.674,4.964,4.674
	s3.518-0.964,5.638-1.108c2.12-0.145,2.265,2.12,2.265,2.12l0.53,3.855c0,0,0.482-0.626,2.65-2.361
	c1.862-1.489,3.886-1.362,4.385-1.301l0,0L25.926,27.973z"/>
<g>
	<path fill="#111111" d="M85.657,42.035c-0.932-1.199-1.398-2.929-1.398-5.19v-7.507c0-2.313,0.462-4.06,1.385-5.242
		c0.924-1.182,2.507-1.773,4.751-1.773c2.14,0,3.654,0.522,4.543,1.566c0.889,1.044,1.333,2.542,1.333,4.492v1.76h-4.142v-1.941
		c0-0.621-0.031-1.121-0.091-1.502c-0.061-0.379-0.216-0.694-0.466-0.945c-0.25-0.25-0.634-0.375-1.151-0.375
		c-0.777,0-1.278,0.251-1.502,0.751c-0.225,0.501-0.336,1.234-0.336,2.201v9.526c0,0.984,0.13,1.717,0.388,2.201
		c0.259,0.483,0.742,0.725,1.45,0.725c0.725,0,1.19-0.246,1.398-0.738c0.207-0.492,0.311-1.22,0.311-2.188v-2.045h4.142v1.734
		c0,2.002-0.44,3.551-1.32,4.647c-0.881,1.096-2.399,1.644-4.556,1.644C88.168,43.834,86.589,43.235,85.657,42.035z"/>
	<path fill="#111111" d="M101.914,22.581h4.737l4.039,20.968h-3.935l-0.777-4.608h-3.313l-0.803,4.608h-4.013L101.914,22.581z
		 M105.564,36.301l-1.268-8.439l-1.242,8.439H105.564z"/>
	<path fill="#111111" d="M113.718,25.739h-3.236v-3.158h10.717v3.158h-3.184v17.81h-4.297V25.739z"/>
	<path fill="#444444" d="M129.612,22.581h8.128v2.175h-5.204v6.938h4.22v2.071h-4.22v7.688h5.256v2.097h-8.18V22.581z"/>
	<path fill="#444444" d="M140.148,22.581h1.993l5.953,13.927V22.581h2.434v20.968h-1.865l-6.031-14.315v14.315h-2.484V22.581z"/>
	<path fill="#444444" d="M153.816,22.581h8.128v2.175h-5.204v6.938h4.22v2.071h-4.22v7.688h5.256v2.097h-8.18V22.581z"/>
	<path fill="#444444" d="M164.352,22.581h4.22c2.123,0,3.68,0.436,4.672,1.307c0.992,0.872,1.489,2.291,1.489,4.259
		c0,2.692-0.863,4.323-2.59,4.893l2.977,10.51h-2.822l-2.744-9.837h-2.278v9.837h-2.924V22.581z M168.39,31.615
		c1.26,0,2.162-0.25,2.705-0.751c0.543-0.5,0.816-1.406,0.816-2.718c0-0.863-0.096-1.54-0.285-2.032
		c-0.19-0.492-0.527-0.855-1.009-1.087c-0.483-0.233-1.166-0.349-2.045-0.349h-1.296v6.938H168.39z"/>
	<path fill="#444444" d="M178.666,42.009c-0.845-1.199-1.268-2.981-1.268-5.345v-7.015c0-1.622,0.169-2.955,0.504-4
		c0.337-1.044,0.915-1.846,1.735-2.407c0.819-0.56,1.946-0.841,3.378-0.841c1.933,0,3.326,0.491,4.181,1.475
		c0.855,0.984,1.281,2.529,1.281,4.634v0.777h-2.744v-0.647c0-1.001-0.06-1.773-0.18-2.317c-0.122-0.543-0.376-0.953-0.764-1.229
		c-0.389-0.276-0.963-0.414-1.722-0.414c-0.811,0-1.416,0.186-1.811,0.557c-0.397,0.371-0.652,0.867-0.764,1.488
		c-0.114,0.621-0.169,1.45-0.169,2.485v7.766c0,1.605,0.195,2.757,0.582,3.456c0.389,0.699,1.135,1.048,2.24,1.048
		c1.087,0,1.834-0.379,2.24-1.139c0.405-0.759,0.608-1.976,0.608-3.65v-1.45h-2.666v-2.071h5.306v10.38h-1.837l-0.285-2.407
		c-0.655,1.777-1.899,2.666-3.728,2.666C180.884,43.808,179.513,43.209,178.666,42.009z"/>
	<path fill="#444444" d="M194.69,36.146l-4.529-13.564h2.718l3.209,10.122l3.159-10.122h2.744l-4.505,13.564v7.404h-2.796V36.146z"
		/>
</g>
</svg>
