<svg version="1.1" xmlns="http://www.w3.org/2000/svg" xmlns:xlink="http://www.w3.org/1999/xlink" viewBox="0 0 10 19">
<g>
	<path d="M7.051,19H2.008v-8.835H0V5.8h1.945c-0.149-1.977,0.22-3.424,1.124-4.412c0.769-0.842,1.911-1.308,3.394-1.387L10,0v4.211
		H7.222C7.099,4.427,7.037,4.959,7.036,5.8h2.943v4.365H7.051V19z M3.118,17.973h2.823V9.137h2.927v-2.31H5.944L5.932,6.325
		C5.9,4.928,5.934,3.734,6.677,3.271l0.141-0.087H8.89V1.027H6.494C5.342,1.089,4.488,1.425,3.916,2.051
		C3.145,2.894,2.872,4.31,3.103,6.258l0.068,0.57H1.11v2.311h2.008V17.973z"/>
</g>
</svg>
