<svg version="1.1" xmlns="http://www.w3.org/2000/svg" xmlns:xlink="http://www.w3.org/1999/xlink" viewBox="0 0 26.943 34.09">
<path d="M13.62,0.017L13.472,0L0,1.412v24.661l13.474,8.017l13.43-7.99l0.042-0.024V1.412L13.62,0.017z M25.019,12.127L13.495,5.334
	L13.494,5.23l-0.087,0.05l-0.088-0.056v0.109L1.925,12.118V3.147l11.549-1.212L25.02,3.147L25.019,12.127L25.019,12.127z
	 M13.405,6.787L24.923,13.5l-4.479,2.64l-7.093-4.221l-0.015,1.415l5.904,3.513l-0.86,0.507l-5.029-2.992l-0.015,1.415l3.827,2.275
	l-0.782,0.524l-3.03-1.787l-0.015,1.413l1.854,1.091l-1.8,1.081L2.034,13.622L13.405,6.787z M1.925,15.127l11.411,6.791l0.017,1.044
	L5.41,18.234L5.395,19.65l7.978,4.795l0.019,1.076l-7.974-4.74l-0.013,1.414l8.021,4.822l0.047,0.024l8.142-4.872l-0.011-5.177
	l3.415-2.036v10.021L13.472,31.85L1.925,24.979V15.127z"/>
</svg>
