<svg version="1.1" xmlns="http://www.w3.org/2000/svg" xmlns:xlink="http://www.w3.org/1999/xlink" viewBox="0 0 16 16">
<path d="M11.825,1.043c1.726,0,3.131,1.406,3.131,3.133v7.657c0,1.727-1.405,3.132-3.131,3.132H4.174
	c-1.726,0-3.131-1.405-3.131-3.132V4.176c0-1.727,1.405-3.132,3.131-3.132L11.825,1.043 M11.825,0H4.174C1.877,0,0,1.879,0,4.176
	v7.657c0,2.296,1.877,4.176,4.174,4.176h7.653c2.294,0,4.173-1.88,4.173-4.177V4.176C16,1.879,14.121,0,11.825,0L11.825,0z"/>
<path d="M8,4.927c1.698,0,3.083,1.382,3.083,3.082c0,1.698-1.384,3.083-3.083,3.083c-1.7,0-3.082-1.384-3.082-3.083
	C4.918,6.308,6.299,4.927,8,4.927 M8,3.883c-2.278,0-4.126,1.847-4.126,4.126S5.721,12.134,8,12.134s4.125-1.847,4.125-4.125
	S10.279,3.883,8,3.883L8,3.883z"/>
<circle cx="12.273" cy="3.744" r="0.933"/>
</svg>
