<svg version="1.1" xmlns="http://www.w3.org/2000/svg" xmlns:xlink="http://www.w3.org/1999/xlink" viewBox="0 0 21.997 12">
<g>
	<path d="M17.551,12c-0.283,0-0.858-0.062-1.522-0.481c-0.471-0.293-0.897-0.737-1.308-1.167c-0.321-0.335-0.859-0.896-1.061-0.896
		c-0.197,0.057-0.353,0.701-0.349,1.195c0.003,0.086-0.001,0.589-0.343,0.924c-0.312,0.305-0.798,0.369-0.892,0.379l-1.412,0.005
		c-0.709,0-3.196-0.166-5.447-2.3C2.523,7.101,0.205,2.198,0.108,1.99c-0.144-0.352-0.182-0.812,0.111-1.128
		c0.287-0.314,0.793-0.359,0.997-0.365L4.21,0.479l0.084,0.006C4.361,0.496,4.71,0.557,4.996,0.751
		C5.28,0.939,5.428,1.247,5.455,1.307c0.007,0.016,0.476,1.09,1.082,2.044c0.962,1.515,1.39,1.869,1.542,1.951
		c0.138-0.318,0.203-1.294,0.137-2.186C8.216,2.74,8.141,2.279,8.031,2.142C7.949,2.04,7.718,1.949,7.46,1.918L6.931,1.392
		C6.86,0.891,7.396,0.458,7.773,0.291C8.314,0.05,9.087,0,10.081,0l0.521,0.004c0.906,0.009,1.189,0.062,1.576,0.145
		c1.248,0.275,1.203,1.317,1.149,2.522c-0.015,0.353-0.034,0.762-0.034,1.234c0,0.115-0.004,0.238-0.008,0.365
		c-0.009,0.289-0.023,0.79,0.068,0.993c0.161-0.11,0.625-0.506,1.519-1.891c0.574-0.887,1.027-1.933,1.112-2.134l0.001-0.001
		c0.133-0.327,0.446-0.717,1.183-0.72l3.134-0.018c0.009-0.002,0.126-0.012,0.276-0.012c0.719,0,1.171,0.219,1.343,0.65
		c0.197,0.495,0.124,1.262-1.726,3.507c-0.271,0.329-0.511,0.612-0.72,0.858c-0.438,0.516-0.892,1.05-0.907,1.215
		c0.039,0.129,0.485,0.506,0.918,0.872c1.122,0.95,1.854,1.724,2.224,2.34c0.383,0.578,0.315,1.013,0.189,1.277
		c-0.311,0.658-1.201,0.741-1.376,0.75l-2.779,0.036C17.704,11.995,17.638,12,17.551,12z M13.66,8.314
		c0.659,0,1.233,0.599,1.841,1.232c0.364,0.381,0.741,0.774,1.097,0.995c0.533,0.335,0.965,0.321,1.025,0.314l0.076-0.007
		l2.79-0.036c0.125-0.009,0.301-0.056,0.393-0.104c-0.013-0.03-0.035-0.072-0.072-0.127c-0.329-0.547-1.018-1.263-1.97-2.07
		c-0.868-0.733-1.321-1.116-1.368-1.709c-0.048-0.613,0.361-1.096,1.178-2.058c0.205-0.242,0.443-0.522,0.709-0.844
		c1.143-1.387,1.435-2.01,1.509-2.251c-0.125-0.022-0.475-0.016-0.497-0.014l-3.198,0.021c-0.14,0.001-0.183,0.027-0.183,0.027
		C16.863,2,16.396,3.065,15.786,4.008c-1.39,2.147-2.042,2.437-2.498,2.437c-0.15,0-0.29-0.038-0.417-0.113
		c-0.735-0.433-0.706-1.397-0.685-2.099c0.004-0.113,0.007-0.225,0.007-0.328c0-0.492,0.018-0.919,0.035-1.286
		c0.056-1.279,0.012-1.288-0.278-1.352c-0.3-0.065-0.517-0.112-1.361-0.121l-0.508-0.004c-0.458,0-0.985,0.011-1.398,0.075
		c0.067,0.056,0.132,0.12,0.19,0.191c0.431,0.536,0.443,1.486,0.441,1.671C9.41,4.331,9.359,5.968,8.568,6.362
		c-0.14,0.07-0.287,0.104-0.438,0.104c-0.679,0-1.359-0.674-2.511-2.488C4.963,2.948,4.475,1.828,4.455,1.78
		C4.447,1.764,4.416,1.722,4.4,1.709C4.339,1.668,4.229,1.635,4.166,1.62L1.232,1.639C1.216,1.639,1.199,1.64,1.18,1.642
		c0.433,0.905,2.512,5.02,4.78,7.172c2.009,1.905,4.272,2.002,4.705,2.002l1.357-0.002c0.034-0.008,0.16-0.047,0.197-0.076
		c-0.014,0.014-0.007-0.04-0.007-0.074c-0.002-0.202,0.009-1.976,1.157-2.31C13.463,8.328,13.56,8.314,13.66,8.314z"/>
</g>
</svg>
